<svg width="32" height="32" viewBox="0 0 32 32" fill="none" xmlns="http://www.w3.org/2000/svg">
<path d="M16.0026 15.9993C19.6845 15.9993 22.6693 13.0146 22.6693 9.33268C22.6693 5.65078 19.6845 2.66602 16.0026 2.66602C12.3207 2.66602 9.33594 5.65078 9.33594 9.33268C9.33594 13.0146 12.3207 15.9993 16.0026 15.9993Z" stroke="white" stroke-width="1.5" stroke-linecap="round" stroke-linejoin="round"/>
<path d="M4.54688 29.3333C4.54688 24.1733 9.6802 20 16.0002 20C17.2802 20 18.5202 20.1733 19.6802 20.4933" stroke="white" stroke-width="1.5" stroke-linecap="round" stroke-linejoin="round"/>
<path d="M29.3307 23.9993C29.3307 24.9993 29.0507 25.946 28.5574 26.746C28.2774 27.226 27.9174 27.6527 27.5041 27.9993C26.5707 28.8393 25.3441 29.3327 23.9974 29.3327C22.0507 29.3327 20.3574 28.2927 19.4374 26.746C18.944 25.946 18.6641 24.9993 18.6641 23.9993C18.6641 22.3193 19.4374 20.8127 20.6641 19.8394C21.5841 19.106 22.7441 18.666 23.9974 18.666C26.9441 18.666 29.3307 21.0527 29.3307 23.9993Z" stroke="white" stroke-width="1.5" stroke-miterlimit="10" stroke-linecap="round" stroke-linejoin="round"/>
<path d="M21.9141 24L23.234 25.32L26.0741 22.6934" stroke="white" stroke-width="1.5" stroke-linecap="round" stroke-linejoin="round"/>
</svg>
