<svg width="32" height="32" viewBox="0 0 32 32" fill="none" xmlns="http://www.w3.org/2000/svg">
<path d="M11.9974 29.3327H19.9974C26.6641 29.3327 29.3307 26.666 29.3307 19.9993V11.9993C29.3307 5.33268 26.6641 2.66602 19.9974 2.66602H11.9974C5.33073 2.66602 2.66406 5.33268 2.66406 11.9993V19.9993C2.66406 26.666 5.33073 29.3327 11.9974 29.3327Z" stroke="white" stroke-width="1.5" stroke-linecap="round" stroke-linejoin="round"/>
<path d="M24 10.3327V19.3327C24 17.866 22.8 16.666 21.3333 16.666H10.6667C9.2 16.666 8 17.866 8 19.3327V10.3327C8 8.86602 9.2 7.66602 10.6667 7.66602H21.3333C22.8 7.66602 24 8.86602 24 10.3327Z" stroke="white" stroke-width="1.5" stroke-linecap="round" stroke-linejoin="round"/>
<path d="M25.3333 21H24" stroke="white" stroke-width="1.5" stroke-linecap="round" stroke-linejoin="round"/>
<path d="M7.9974 21H6.66406" stroke="white" stroke-width="1.5" stroke-linecap="round" stroke-linejoin="round"/>
<path d="M24 18.6667V14.6667C24 13.2 22.8 12 21.3333 12H10.6667C9.2 12 8 13.2 8 14.6667V18.6667" stroke="white" stroke-width="1.5" stroke-linecap="round" stroke-linejoin="round"/>
<path d="M24 19.3327V20.9993H19.3333C19.3333 22.8393 17.84 24.3327 16 24.3327C14.16 24.3327 12.6667 22.8393 12.6667 20.9993H8V19.3327C8 17.866 9.2 16.666 10.6667 16.666H21.3333C22.8 16.666 24 17.866 24 19.3327Z" stroke="white" stroke-width="1.5" stroke-linecap="round" stroke-linejoin="round"/>
</svg>
