<svg width="32" height="32" viewBox="0 0 32 32" fill="none" xmlns="http://www.w3.org/2000/svg">
<path d="M14.3381 22.4805V25.1872C14.3381 27.4805 12.2047 29.3338 9.57804 29.3338C6.95138 29.3338 4.80469 27.4805 4.80469 25.1872V22.4805C4.80469 24.7738 6.93804 26.4005 9.57804 26.4005C12.2047 26.4005 14.3381 24.7605 14.3381 22.4805Z" stroke="white" stroke-width="1.5" stroke-linecap="round" stroke-linejoin="round"/>
<path d="M14.3357 18.813C14.3357 19.4797 14.149 20.093 13.829 20.6263C13.0424 21.9196 11.429 22.733 9.56234 22.733C7.69567 22.733 6.08232 21.9063 5.29565 20.6263C4.97565 20.093 4.78906 19.4797 4.78906 18.813C4.78906 17.6663 5.32237 16.6397 6.1757 15.893C7.04237 15.133 8.22899 14.6797 9.54899 14.6797C10.869 14.6797 12.0557 15.1463 12.9224 15.893C13.8024 16.6263 14.3357 17.6663 14.3357 18.813Z" stroke="white" stroke-width="1.5" stroke-linecap="round" stroke-linejoin="round"/>
<path d="M14.3381 18.8127V22.4793C14.3381 24.7727 12.2047 26.3993 9.57804 26.3993C6.95138 26.3993 4.80469 24.7593 4.80469 22.4793V18.8127C4.80469 16.5193 6.93804 14.666 9.57804 14.666C10.898 14.666 12.0847 15.1326 12.9514 15.8793C13.8047 16.626 14.3381 17.666 14.3381 18.8127Z" stroke="white" stroke-width="1.5" stroke-linecap="round" stroke-linejoin="round"/>
<path d="M29.331 14.6275V17.3743C29.331 18.1076 28.7443 18.7075 27.9977 18.7342H25.3843C23.9443 18.7342 22.6244 17.6809 22.5044 16.2409C22.4244 15.4009 22.7443 14.6142 23.3043 14.0675C23.7977 13.5609 24.4777 13.2676 25.2243 13.2676H27.9977C28.7443 13.2942 29.331 13.8942 29.331 14.6275Z" stroke="white" stroke-width="1.5" stroke-linecap="round" stroke-linejoin="round"/>
<path d="M2.66406 13.9993V11.3327C2.66406 7.70602 4.85073 5.17268 8.25073 4.74601C8.5974 4.69268 8.9574 4.66602 9.33073 4.66602H21.3307C21.6774 4.66602 22.0107 4.67933 22.3307 4.73267C25.7707 5.13267 27.9974 7.67935 27.9974 11.3327V13.266H25.224C24.4774 13.266 23.7974 13.5593 23.304 14.066C22.744 14.6127 22.4241 15.3993 22.5041 16.2393C22.6241 17.6793 23.944 18.7327 25.384 18.7327H27.9974V20.666C27.9974 24.666 25.3307 27.3327 21.3307 27.3327H17.9974" stroke="white" stroke-width="1.5" stroke-linecap="round" stroke-linejoin="round"/>
</svg>
