<svg width="32" height="32" viewBox="0 0 32 32" fill="none" xmlns="http://www.w3.org/2000/svg">
<path d="M14.6641 2.66602H11.9974C5.33073 2.66602 2.66406 5.33268 2.66406 11.9993V19.9993C2.66406 26.666 5.33073 29.3327 11.9974 29.3327H19.9974C26.6641 29.3327 29.3307 26.666 29.3307 19.9993V17.3327" stroke="white" stroke-width="1.5" stroke-linecap="round" stroke-linejoin="round"/>
<path d="M21.3865 4.027L10.8798 14.5337C10.4798 14.9337 10.0798 15.7203 9.99984 16.2937L9.42651 20.307C9.21317 21.7603 10.2398 22.7737 11.6932 22.5737L15.7065 22.0003C16.2665 21.9203 17.0532 21.5203 17.4665 21.1203L27.9732 10.6137C29.7865 8.80034 30.6398 6.69367 27.9732 4.027C25.3065 1.36034 23.1998 2.21367 21.3865 4.027Z" stroke="white" stroke-width="1.5" stroke-miterlimit="10" stroke-linecap="round" stroke-linejoin="round"/>
<path d="M19.8828 5.5332C20.7761 8.71987 23.2695 11.2132 26.4695 12.1199" stroke="white" stroke-width="1.5" stroke-miterlimit="10" stroke-linecap="round" stroke-linejoin="round"/>
</svg>
